<?xml version="1.0" encoding="UTF-8" standalone="no"?><!DOCTYPE svg PUBLIC "-//W3C//DTD SVG 1.1//EN" "http://www.w3.org/Graphics/SVG/1.1/DTD/svg11.dtd"><svg width="100%" height="100%" viewBox="0 0 1696 353" version="1.1"  xml:space="preserve"  style="fill-rule:evenodd;clip-rule:evenodd;stroke-linejoin:round;stroke-miterlimit:1.41421;"><g id="Final"><g id="This-one-" ><path d="M464.547,170.059c16.47,0 24.705,8.235 24.705,24.705l0,22.089c0,16.276 -8.235,24.414 -24.705,24.414l-61.035,0l0,-13.079l61.035,0c7.751,0 11.626,-3.779 11.626,-11.335l0,-22.089c0,-7.751 -3.875,-11.626 -11.626,-11.626l-43.596,0c-16.47,0 -24.705,-8.235 -24.705,-24.705l0,-14.532c0,-16.469 8.235,-24.704 24.705,-24.704l61.035,0l0,13.079l-61.035,0c-7.751,0 -11.626,3.875 -11.626,11.625l0,14.532c0,7.751 3.875,11.626 11.626,11.626l43.596,0Z" style="fill:#fff;fill-rule:nonzero;"/><path d="M516.863,263.065l-13.079,0l0,-82.833c0,-16.47 8.235,-24.705 24.704,-24.705l29.065,0c16.469,0 24.704,8.235 24.704,24.705l0,36.33c0,16.47 -8.235,24.705 -24.704,24.705l-31.971,0l0,-13.079l31.971,0c7.75,0 11.625,-3.875 11.625,-11.626l0,-36.33c0,-7.751 -3.875,-11.626 -11.625,-11.626l-29.065,0c-7.75,0 -11.625,3.875 -11.625,11.626l0,82.833Z" style="fill:#fff;fill-rule:nonzero;"/><path d="M602.602,168.606l0,-13.079l46.503,0c16.47,0 24.705,8.235 24.705,24.705l0,36.33c0,16.47 -8.235,24.705 -24.705,24.705l-29.064,0c-16.47,0 -24.705,-8.235 -24.705,-24.705l0,-0.291c0,-16.276 8.235,-24.414 24.705,-24.414l31.971,0l0,13.079l-31.971,0c-7.751,0 -11.626,3.779 -11.626,11.335l0,0.291c0,7.751 3.875,11.626 11.626,11.626l29.064,0c7.751,0 11.626,-3.875 11.626,-11.626l0,-36.33c0,-7.751 -3.875,-11.626 -11.626,-11.626l-46.503,0Z" style="fill:#fff;fill-rule:nonzero;"/><path d="M752.283,228.188l0,13.079l-39.236,0c-16.47,0 -24.705,-8.235 -24.705,-24.705l0,-36.33c0,-16.47 8.235,-24.705 24.705,-24.705l39.236,0l0,13.079l-39.236,0c-7.751,0 -11.626,3.875 -11.626,11.626l0,36.33c0,7.751 3.875,11.626 11.626,11.626l39.236,0Z" style="fill:#fff;fill-rule:nonzero;"/><path d="M835.116,228.188l0,13.079l-46.502,0c-16.47,0 -24.705,-8.235 -24.705,-24.705l0,-36.33c0,-16.47 8.235,-24.705 24.705,-24.705l29.064,0c16.47,0 24.705,8.235 24.705,24.705l0,0.29c0,16.276 -8.235,24.414 -24.705,24.414l-31.971,0l0,-13.079l31.971,0c7.75,0 11.626,-3.778 11.626,-11.335l0,-0.29c0,-7.751 -3.876,-11.626 -11.626,-11.626l-29.064,0c-7.751,0 -11.626,3.875 -11.626,11.626l0,36.33c0,7.751 3.875,11.626 11.626,11.626l46.502,0Z" style="fill:#fff;fill-rule:nonzero;"/><path d="M904.871,183.138l0,45.05l58.128,0l0,13.079l-71.207,0l0,-122.07l71.207,0l0,13.079l-58.128,0l0,37.783l58.128,0l0,13.079l-58.128,0Z" style="fill:#fff;fill-rule:nonzero;"/><path d="M1042.93,119.197l13.079,0l0,97.365c0,16.47 -8.235,24.705 -24.705,24.705l-29.064,0c-16.47,0 -24.705,-8.235 -24.705,-24.705l0,-36.33c0,-16.47 8.235,-24.705 24.705,-24.705l31.971,0l0,13.079l-31.971,0c-7.75,0 -11.626,3.875 -11.626,11.626l0,36.33c0,7.751 3.876,11.626 11.626,11.626l29.064,0c7.751,0 11.626,-3.875 11.626,-11.626l0,-97.365Z" style="fill:#fff;fill-rule:nonzero;"/><path d="M1125.32,241.267l-11.771,0l-48.828,-122.07l14.242,0l40.544,103.033l40.254,-103.033l14.096,0l-48.537,122.07Z" style="fill:#fff;fill-rule:nonzero;"/><path d="M1241.14,228.188l0,13.079l-46.503,0c-16.469,0 -24.704,-8.235 -24.704,-24.705l0,-36.33c0,-16.47 8.235,-24.705 24.704,-24.705l29.065,0c16.469,0 24.704,8.235 24.704,24.705l0,0.29c0,16.276 -8.235,24.414 -24.704,24.414l-31.971,0l0,-13.079l31.971,0c7.75,0 11.625,-3.778 11.625,-11.335l0,-0.29c0,-7.751 -3.875,-11.626 -11.625,-11.626l-29.065,0c-7.75,0 -11.625,3.875 -11.625,11.626l0,36.33c0,7.751 3.875,11.626 11.625,11.626l46.503,0Z" style="fill:#fff;fill-rule:nonzero;"/><path d="M1339.96,241.267l-13.079,0l0,-61.035c0,-7.751 -3.875,-11.626 -11.626,-11.626l-40.69,0l0,72.661l-13.079,0l0,-85.74l53.769,0c16.47,0 24.705,8.235 24.705,24.705l0,61.035Z" style="fill:#fff;fill-rule:nonzero;"/><path d="M1350.13,155.527l7.266,0l0,-36.33l12.062,0l0,36.33l15.549,0l0,13.079l-15.549,0l0,72.661l-12.062,0l0,-72.661l-7.266,0l0,-13.079Z" style="fill:#fff;fill-rule:nonzero;"/><path d="M1448.95,228.188c7.75,0 11.625,-3.779 11.625,-11.335l0,-61.326l13.079,0l0,61.326c0,16.276 -8.235,24.414 -24.704,24.414l-29.065,0c-16.469,0 -24.704,-8.235 -24.704,-24.705l0,-61.035l13.079,0l0,61.035c0,7.751 3.875,11.626 11.625,11.626l29.065,0Z" style="fill:#fff;fill-rule:nonzero;"/><path d="M1501.27,241.267l-13.078,0l0,-61.035c0,-16.47 8.234,-24.705 24.704,-24.705l10.173,0l0,13.079l-10.173,0c-7.75,0 -11.626,3.875 -11.626,11.626l0,61.035Z" style="fill:#fff;fill-rule:nonzero;"/><path d="M1605.9,228.188l0,13.079l-46.503,0c-16.47,0 -24.705,-8.235 -24.705,-24.705l0,-36.33c0,-16.47 8.235,-24.705 24.705,-24.705l29.064,0c16.47,0 24.705,8.235 24.705,24.705l0,0.29c0,16.276 -8.235,24.414 -24.705,24.414l-31.97,0l0,-13.079l31.97,0c7.751,0 11.626,-3.778 11.626,-11.335l0,-0.29c0,-7.751 -3.875,-11.626 -11.626,-11.626l-29.064,0c-7.751,0 -11.626,3.875 -11.626,11.626l0,36.33c0,7.751 3.875,11.626 11.626,11.626l46.503,0Z" style="fill:#fff;fill-rule:nonzero;"/><path d="M1649.5,204.936c-16.47,0 -24.704,-8.235 -24.704,-24.704c0,-16.47 8.234,-24.705 24.704,-24.705l39.237,0l0,13.079l-39.237,0c-7.75,0 -11.626,3.875 -11.626,11.626c0,7.75 3.876,11.625 11.626,11.625l21.798,0c16.47,0 24.705,8.235 24.705,24.705c0,16.47 -8.235,24.705 -24.705,24.705l-40.544,0l0,-13.079l40.544,0c7.751,0 11.626,-3.875 11.626,-11.626c0,-7.75 -3.875,-11.626 -11.626,-11.626l-21.798,0Z" style="fill:#fff;fill-rule:nonzero;"/></g><g id="Layer1"><circle cx="149.045" cy="201.501" r="149.045" style="fill:url(#_Linear1);"/><path d="M182.609,331.118c0,0 71.399,-3.476 108.026,-83.439c27.636,-60.334 -2.616,-121.366 -2.616,-121.366c0,0 13.376,-13.05 19.095,-20.402c5.798,-7.455 16.217,-23.018 16.217,-23.018l-321.464,208.99c0,0 49.448,-18.042 98.087,-36.619c50.492,-19.284 100.058,-41.325 120.582,-21.187c51.854,50.883 -37.927,97.041 -37.927,97.041Zm88.147,-231.747c-29.926,11.817 -58.965,28.405 -86.316,42.374c-81.364,41.553 -150.194,69.457 -151.185,-1.831c-1.184,-85.15 154.724,-142.863 237.501,-40.543Z" style="fill:url(#_Linear2);"/><path d="M330.068,80.591c-4.334,-5.378 -9.983,-10.597 -14.495,-14.807c-5.365,-5.006 -17.483,-14.029 -17.483,-14.029l39.626,2.973c0,0 17.746,-13.126 26.697,-16.92c8.481,-3.596 27.008,-5.848 27.008,-5.848l-0.066,0.196c-0.652,1.932 -6.107,17.49 -11.392,24.951c-5.6,7.906 -22.21,22.488 -22.21,22.488l-5.523,39.352c0,0 -6.24,-13.76 -9.99,-20.067c-3.604,-6.062 -7.728,-12.773 -12.172,-18.289Z" style="fill:url(#_Linear3);"/></g></g><defs><linearGradient id="_Linear1" x1="0" y1="0" x2="1" y2="0" gradientUnits="userSpaceOnUse" gradientTransform="matrix(-151.008,-244.542,244.542,-151.008,248.335,320.58)"><stop offset="0" style="stop-color:#641b1a;stop-opacity:1"/><stop offset="1" style="stop-color:#c74947;stop-opacity:1"/></linearGradient><linearGradient id="_Linear2" x1="0" y1="0" x2="1" y2="0" gradientUnits="userSpaceOnUse" gradientTransform="matrix(160.601,149.092,-148.396,159.851,123.519,138.417)"><stop offset="0" style="stop-color:#ffd5d4;stop-opacity:1"/><stop offset="1" style="stop-color:#a62d2a;stop-opacity:1"/></linearGradient><linearGradient id="_Linear3" x1="0" y1="0" x2="1" y2="0" gradientUnits="userSpaceOnUse" gradientTransform="matrix(54.1406,67.192,-66.2613,53.3907,331.22,25.0592)"><stop offset="0" style="stop-color:#ff5a57;stop-opacity:1"/><stop offset="1" style="stop-color:#922725;stop-opacity:1"/></linearGradient></defs></svg>