<svg clip-rule="evenodd" fill-rule="evenodd" stroke-linejoin="round" stroke-miterlimit="1.41421" viewBox="0 0 300 300" xmlns="http://www.w3.org/2000/svg" xmlns:xlink="http://www.w3.org/1999/xlink"><radialGradient id="a" cx="0" cy="0" gradientTransform="matrix(57.6304 37.745 -120.214 174.136 154.179 149)" gradientUnits="userSpaceOnUse" r="1"><stop offset="0" stop-color="#ff9a02"/><stop offset=".32" stop-color="#ff9a02"/><stop offset="1" stop-color="#ffc801"/></radialGradient><clipPath id="b"><path clip-rule="evenodd" d="m-1 0h300v300h-300z"/></clipPath><path d="m-1 0h300v300h-300z" fill="none"/><g clip-path="url(#b)"><path d="m278.631 157.807c4.861-4.861 4.861-12.753 0-17.614l-120.824-120.824c-4.861-4.861-12.753-4.861-17.614 0l-120.824 120.824c-4.861 4.861-4.861 12.753 0 17.614l120.824 120.824c4.861 4.861 12.753 4.861 17.614 0z" fill="#343432"/><path d="m149.304 2.725.305.006.304.009.304.012.304.017.304.02.303.023.304.027.303.031.303.035.303.038.302.041.302.046.302.049.301.052.301.057.3.06.299.063.3.068.298.071.298.074.297.078.297.082.296.086.295.089.294.093.294.096.292.101.292.104.291.107.29.111.288.115.288.119.287.122.285.126.284.13.283.133.282.137.28.141.279.144.277.148.277.152.274.155.273.159.272.163.269.166.269.17.266.173.265.177.262.18.261.185.259.187.257.192.255.194.253.199.25.201.249.206.246.209.244.211.242.216.239.219.237.222.234.226.203.2 120.881 120.881.2.203.226.234.222.237.219.239.216.242.212.244.208.246.206.249.202.251.197.252.195.255.192.257.187.259.184.26.181.263.177.265.174.266.169.268.166.27.163.272.159.273.155.274.152.277.148.278.144.278.141.28.136.281.134.284.13.284.125.285.123.287.119.288.115.289.111.289.107.291.105.292.1.292.096.293.093.294.089.296.086.296.082.297.078.297.075.298.07.298.068.299.063.301.06.299.056.301.053.302.049.302.046.301.041.301.038.303.035.304.031.303.027.304.023.303.02.303.017.305.012.306.009.303.006.303.002.305-.002.305-.006.303-.009.303-.012.306-.017.305-.02.303-.023.303-.027.304-.031.303-.035.304-.038.303-.041.301-.046.301-.049.302-.053.302-.056.301-.06.299-.063.301-.068.299-.07.298-.075.298-.078.297-.082.297-.086.296-.089.296-.093.294-.096.293-.1.292-.105.292-.107.291-.111.289-.115.289-.119.288-.123.287-.125.285-.13.284-.134.284-.136.281-.141.28-.144.278-.148.278-.152.277-.155.274-.159.273-.163.272-.166.27-.169.268-.174.266-.177.265-.181.263-.184.26-.187.259-.192.257-.195.255-.197.252-.202.251-.206.249-.208.246-.212.244-.216.242-.219.239-.222.237-.226.234-.2.203-120.881 120.881-.203.2-.234.226-.237.222-.239.219-.242.216-.244.212-.246.208-.249.206-.251.202-.252.197-.255.195-.257.192-.259.187-.26.184-.263.181-.265.177-.266.174-.268.169-.27.166-.272.163-.273.159-.274.155-.277.152-.278.148-.278.144-.28.141-.281.136-.284.134-.284.13-.285.125-.287.123-.288.119-.289.115-.289.111-.291.107-.292.105-.292.1-.293.096-.294.093-.296.089-.296.086-.297.082-.297.078-.298.075-.298.07-.299.068-.301.063-.299.06-.301.056-.302.053-.302.049-.301.046-.301.041-.303.038-.304.035-.303.031-.304.027-.303.023-.303.02-.305.017-.306.012-.303.009-.303.006-.305.002-.305-.002-.303-.006-.303-.009-.306-.012-.305-.017-.303-.02-.303-.023-.304-.027-.303-.031-.304-.035-.303-.038-.301-.041-.301-.046-.302-.049-.302-.053-.301-.056-.299-.06-.301-.063-.299-.068-.298-.07-.298-.075-.297-.078-.297-.082-.296-.086-.296-.089-.294-.093-.293-.096-.292-.1-.292-.105-.291-.107-.289-.111-.289-.115-.288-.119-.287-.123-.285-.125-.284-.13-.284-.134-.281-.136-.28-.141-.278-.144-.278-.148-.277-.152-.274-.155-.273-.159-.272-.163-.27-.166-.268-.169-.266-.174-.265-.177-.263-.181-.26-.184-.259-.187-.257-.192-.255-.195-.252-.197-.251-.202-.249-.206-.246-.208-.244-.212-.242-.216-.239-.219-.237-.222-.234-.226-.203-.2-120.881-120.881-.2-.203-.226-.234-.222-.237-.219-.239-.216-.242-.211-.244-.209-.246-.206-.249-.201-.25-.199-.253-.194-.255-.192-.257-.187-.259-.185-.261-.18-.262-.177-.265-.173-.266-.17-.269-.166-.269-.163-.272-.159-.273-.155-.274-.152-.277-.148-.277-.144-.279-.141-.28-.137-.282-.133-.283-.13-.284-.126-.285-.122-.287-.119-.288-.115-.288-.111-.29-.107-.291-.104-.292-.101-.292-.096-.294-.093-.294-.089-.295-.086-.296-.082-.297-.078-.297-.074-.298-.071-.298-.068-.299-.063-.3-.06-.3-.056-.301-.053-.301-.049-.302-.046-.302-.041-.302-.038-.303-.035-.303-.031-.303-.027-.304-.023-.303-.02-.304-.017-.304-.012-.304-.009-.304-.006-.305-.002-.304.002-.304.006-.305.009-.304.012-.304.017-.304.02-.304.023-.303.027-.304.031-.303.035-.303.038-.303.041-.302.046-.302.049-.302.053-.301.056-.301.06-.3.063-.3.068-.299.071-.298.074-.298.078-.297.082-.297.086-.296.089-.295.093-.294.096-.294.101-.292.104-.292.107-.291.111-.29.115-.288.119-.288.122-.287.126-.285.13-.284.133-.283.137-.282.141-.28.144-.279.148-.277.152-.277.155-.274.159-.273.163-.272.166-.269.17-.269.173-.266.177-.265.18-.262.185-.261.187-.259.192-.257.194-.255.199-.253.201-.25.206-.249.209-.246.211-.244.216-.242.219-.239.222-.237.226-.234.2-.203 120.881-120.881.203-.2.234-.226.237-.222.239-.219.242-.216.244-.211.246-.209.249-.206.25-.201.253-.199.255-.194.257-.192.259-.187.261-.185.262-.18.265-.177.266-.173.269-.17.269-.166.272-.163.273-.159.274-.155.277-.152.277-.148.279-.144.28-.141.282-.137.283-.133.284-.13.285-.126.287-.122.288-.119.288-.115.29-.111.291-.107.292-.104.292-.101.294-.096.294-.093.295-.089.296-.086.297-.082.297-.078.298-.074.298-.071.3-.068.299-.063.3-.06.301-.057.301-.052.302-.049.302-.046.302-.041.303-.038.303-.035.303-.031.304-.027.303-.023.304-.02.304-.017.304-.012.304-.009.305-.006.304-.002.304.002zm-.453 12.999-.15.003-.149.005-.15.006-.149.008-.149.01-.149.011-.149.014-.149.015-.149.017-.148.018-.149.021-.148.022-.147.024-.148.026-.148.027-.147.03-.146.031-.147.033-.146.035-.146.036-.145.038-.145.04-.145.042-.144.044-.144.045-.143.047-.143.049-.143.051-.142.053-.141.054-.141.056-.14.058-.14.059-.139.062-.139.063-.138.065-.137.067-.136.068-.136.071-.136.072-.134.074-.134.075-.133.078-.132.079-.132.081-.13.083-.13.084-.129.087-.129.088-.127.09-.126.091-.126.094-.124.095-.124.097-.123.099-.122.1-.12.103-.12.104-.119.106-.118.107-.116.11-.116.111-.114.113-120.824 120.824-.113.114-.111.116-.11.116-.107.118-.106.119-.104.12-.103.12-.1.122-.099.123-.097.124-.095.124-.094.126-.091.126-.09.127-.088.129-.087.129-.084.13-.083.13-.081.132-.079.132-.078.133-.075.134-.074.134-.072.136-.071.136-.068.136-.067.137-.065.138-.063.139-.062.139-.059.14-.058.14-.056.141-.054.141-.053.142-.051.143-.049.143-.047.143-.045.144-.044.144-.042.145-.04.145-.038.145-.036.146-.035.146-.033.147-.031.146-.03.147-.027.148-.026.148-.024.147-.022.148-.021.149-.018.148-.017.149-.015.149-.014.149-.011.149-.01.149-.008.149-.006.15-.005.149-.003.15v.149.149l.003.15.005.149.006.15.008.149.01.149.011.149.014.149.015.149.017.149.018.148.021.149.022.148.024.147.026.148.027.148.03.147.031.146.033.147.035.146.036.146.038.145.04.145.042.145.044.144.045.144.047.143.049.143.051.143.053.142.054.141.056.141.058.14.059.14.062.139.063.139.065.138.067.137.068.136.071.136.072.136.074.134.075.134.078.133.079.132.081.132.083.13.084.13.087.129.088.129.09.127.091.126.094.126.095.124.097.124.099.123.1.122.103.12.104.12.106.119.107.118.11.116.111.116.113.114 120.824 120.824.114.113.116.111.116.11.118.107.119.106.12.104.12.103.122.1.123.099.124.097.124.095.126.094.126.091.127.09.129.088.129.087.13.084.13.083.132.081.132.079.133.078.134.075.134.074.136.072.136.071.136.068.137.067.138.065.139.063.139.062.14.059.14.058.141.056.141.054.142.053.143.051.143.049.143.047.144.045.144.044.145.042.145.04.145.038.146.036.146.035.147.033.146.031.147.03.148.027.148.026.147.024.148.022.149.021.148.018.149.017.149.015.149.014.149.011.149.01.149.008.15.006.149.005.15.003h.149.149l.15-.003.149-.005.15-.006.149-.008.149-.01.149-.011.149-.014.149-.015.149-.017.148-.018.149-.021.148-.022.147-.024.148-.026.148-.027.147-.03.146-.031.147-.033.146-.035.146-.036.145-.038.145-.04.145-.042.144-.044.144-.045.143-.047.143-.049.143-.051.142-.053.141-.054.141-.056.14-.058.14-.059.139-.062.139-.063.138-.065.137-.067.136-.068.136-.071.136-.072.134-.074.134-.075.133-.078.132-.079.132-.081.13-.083.13-.084.129-.087.129-.088.127-.09.126-.091.126-.094.124-.095.124-.097.123-.099.122-.1.12-.103.12-.104.119-.106.118-.107.116-.11.116-.111.114-.113 120.824-120.824.113-.114.111-.116.11-.116.107-.118.106-.119.104-.12.103-.12.1-.122.099-.123.097-.124.095-.124.094-.126.091-.126.09-.127.088-.129.087-.129.084-.13.083-.13.081-.132.079-.132.078-.133.075-.134.074-.134.072-.136.071-.136.068-.136.067-.137.065-.138.063-.139.062-.139.059-.14.058-.14.056-.141.054-.141.053-.142.051-.143.049-.143.047-.143.045-.144.044-.144.042-.145.04-.145.038-.145.036-.146.035-.146.033-.147.031-.146.03-.147.027-.148.026-.148.024-.147.022-.148.021-.149.018-.148.017-.149.015-.149.014-.149.011-.149.01-.149.008-.149.006-.15.005-.149.003-.15v-.149-.149l-.003-.15-.005-.149-.006-.15-.008-.149-.01-.149-.011-.149-.014-.149-.015-.149-.017-.149-.018-.148-.021-.149-.022-.148-.024-.147-.026-.148-.027-.148-.03-.147-.031-.146-.033-.147-.035-.146-.036-.146-.038-.145-.04-.145-.042-.145-.044-.144-.045-.144-.047-.143-.049-.143-.051-.143-.053-.142-.054-.141-.056-.141-.058-.14-.059-.14-.062-.139-.063-.139-.065-.138-.067-.137-.068-.136-.071-.136-.072-.136-.074-.134-.075-.134-.078-.133-.079-.132-.081-.132-.083-.13-.084-.13-.087-.129-.088-.129-.09-.127-.091-.126-.094-.126-.095-.124-.097-.124-.099-.123-.1-.122-.103-.12-.104-.12-.106-.119-.107-.118-.11-.116-.111-.116-.113-.114-120.824-120.824-.114-.113-.116-.111-.116-.11-.118-.107-.119-.106-.12-.104-.12-.103-.122-.1-.123-.099-.124-.097-.124-.095-.126-.094-.126-.091-.127-.09-.129-.088-.129-.087-.13-.084-.13-.083-.132-.081-.132-.079-.133-.078-.134-.075-.134-.074-.136-.072-.136-.071-.136-.068-.137-.067-.138-.065-.139-.063-.139-.062-.14-.059-.14-.058-.141-.056-.141-.054-.142-.053-.143-.051-.143-.049-.143-.047-.144-.045-.144-.044-.145-.042-.145-.04-.145-.038-.146-.036-.146-.035-.147-.033-.146-.031-.147-.03-.148-.027-.148-.026-.147-.024-.148-.022-.149-.021-.148-.018-.149-.017-.149-.015-.149-.014-.149-.011-.149-.01-.149-.008-.15-.006-.149-.005-.15-.003h-.149-.149z" fill="none"/><path d="m252.506 129.453 19.547 19.547-123.053 123.053-123.053-123.053 19.488-19.487 96.983 62.588c3.432 2.076 7.741 2.49 11.355.894.476-.21.926-.449 1.352-.715.103-.058.205-.118.307-.179zm-17.36-17.36-86.221 55.643-86.13-55.584 86.205-86.205z" fill="url(#a)"/></g></svg>