<svg clip-rule="evenodd" fill-rule="evenodd" stroke-linejoin="round" stroke-miterlimit="1.41421" viewBox="0 0 301 300" xmlns="http://www.w3.org/2000/svg" xmlns:xlink="http://www.w3.org/1999/xlink"><radialGradient id="a" cx="0" cy="0" gradientTransform="matrix(55.642 37.4145 -116.067 172.611 155.191 150)" gradientUnits="userSpaceOnUse" r="1"><stop offset="0" stop-color="#ff9a02"/><stop offset=".32" stop-color="#ff9a02"/><stop offset="1" stop-color="#ffc801"/></radialGradient><path d="m.191 0h300v300h-300z" fill="none"/><path d="m151.374 21.633c1.08.269 1.614.183 3.448 1.831l25.097 25.485 24.849-5.289s.679-.28 2.171-.091c1.449.184 2.815.864 3.835 1.909.452.464.525.616.891 1.147l53.357 87.198 9.182 12.286s.568.52 1.019 2.021c.438 1.46.345 3.054-.26 4.452-.268.62-.388.748-.759 1.309l-9.182 12.286-53.357 87.198s-.264.686-1.427 1.638c-1.131.925-2.564 1.448-4.025 1.469-.648.009-.808-.043-1.445-.142l-24.849-5.289-25.097 25.485-.59.53c-2.125 1.486-2.988 1.486-4.438 1.397-1.571-.096-3.007-.823-4.235-1.927l-25.097-25.485-24.849 5.289s-.679.28-2.17.091c-1.45-.184-2.816-.864-3.836-1.909-.452-.464-.524-.616-.891-1.147l-53.357-87.198-9.182-12.286s-.568-.52-1.019-2.021c-.438-1.46-.345-3.054.26-4.452.268-.62.388-.748.759-1.309l9.182-12.286 53.357-87.198s.264-.685 1.427-1.638c1.131-.925 2.564-1.448 4.025-1.469.648-.009.808.043 1.445.142l24.849 5.289 25.097-25.485s1.695-1.506 3.449-1.831c1.469-.272 1.868-.061 2.366 0z" fill="#363533" fill-rule="nonzero"/><path d="m150.191 28.024s27.596 28.025 27.596 28.025l28.334-6.032 53.514 87.456 9.363 12.527-9.363 12.527-53.514 87.456-28.334-6.032-27.596 28.025s-27.597-28.025-27.597-28.025l-28.334 6.032-53.514-87.456-9.363-12.527 9.363-12.527 53.514-87.456 28.334 6.032zm0 206.611s-12.346 3.863-12.346 3.863l12.346 12.361s12.345-12.361 12.345-12.361zm0-161.174s-52.039-14.643-52.039-14.643l-52.828 91.182 52.828 91.182 52.039-14.643s52.038 14.643 52.038 14.643l52.828-91.182-52.828-91.182zm-95.804 73.858 77.982 77.982-32.669 9.067-46.799-84.368zm119.493 79.61-105.263-105.263 11.881-21.417 125.156 125.156-4.972 8.963zm-47.379-153.858 105.263 105.263-11.88 21.417-125.157-125.156 4.973-8.963zm41.511 1.628 32.67-9.067 46.799 84.368-1.487 2.681zm-17.821-25.558s-12.346 12.361-12.346 12.361l12.346 3.863s12.345-3.863 12.345-3.863z" fill="url(#a)"/></svg>