<svg clip-rule="evenodd" fill-rule="evenodd" stroke-linejoin="round" stroke-miterlimit="1.41421" viewBox="0 0 301 300" xmlns="http://www.w3.org/2000/svg" xmlns:xlink="http://www.w3.org/1999/xlink"><radialGradient id="a" cx="0" cy="0" gradientTransform="matrix(55.642 37.4145 -116.067 172.611 155.381 150)" gradientUnits="userSpaceOnUse" r="1"><stop offset="0" stop-color="#ff9a02"/><stop offset=".32" stop-color="#ff9a02"/><stop offset="1" stop-color="#ffc801"/></radialGradient><path d="m.381 0h300v300h-300z" fill="none"/><path d="m151.564 21.633c1.08.269 1.614.183 3.449 1.831l25.096 25.485 24.849-5.289s.679-.28 2.171-.091c1.449.184 2.815.864 3.835 1.909.453.464.525.616.892 1.147l53.357 87.198 9.182 12.286s.568.52 1.019 2.021c.438 1.46.345 3.054-.26 4.452-.269.62-.389.748-.759 1.309l-9.182 12.286-53.357 87.198s-.264.686-1.428 1.638c-1.13.925-2.564 1.448-4.024 1.469-.648.009-.808-.043-1.446-.142l-24.849-5.289-25.096 25.485-.59.53c-2.125 1.486-2.988 1.486-4.438 1.397-1.572-.096-3.007-.823-4.235-1.927l-25.097-25.485-24.849 5.289s-.679.28-2.171.091c-1.449-.184-2.815-.864-3.835-1.909-.453-.464-.525-.616-.892-1.147l-53.357-87.198-9.182-12.286s-.567-.52-1.018-2.021c-.439-1.46-.346-3.054.26-4.452.268-.62.388-.748.758-1.309l9.182-12.286 53.357-87.198s.264-.685 1.428-1.638c1.13-.925 2.564-1.448 4.025-1.469.648-.009.807.043 1.445.142l24.849 5.289 25.097-25.485s1.695-1.506 3.448-1.831c1.469-.272 1.869-.061 2.366 0z" fill="#363533" fill-rule="nonzero"/><path d="m150.381 28.024s27.597 28.025 27.597 28.025l28.334-6.032 53.514 87.456 9.362 12.527-9.362 12.527-53.514 87.456-28.334-6.032-27.597 28.025s-27.597-28.025-27.597-28.025l-28.333 6.032-53.515-87.456-9.362-12.527 9.362-12.527 53.515-87.456 28.333 6.032zm0 206.611s-12.345 3.863-12.345 3.863l12.345 12.361s12.346-12.361 12.346-12.361zm0-161.174s-52.038-14.643-52.038-14.643l-52.829 91.182 52.829 91.182 52.038-14.643s52.038 14.643 52.038 14.643l52.829-91.182-52.829-91.182zm0 6.185s50.491-14.014 50.491-14.014l46.799 84.368-46.799 84.368-50.491-14.014s-50.491 14.014-50.491 14.014l-46.799-84.368 46.799-84.368zm0 38.081 8.011 24.654h25.922l-20.971 15.238 8.01 24.654-20.972-15.237-20.972 15.237 8.011-24.654-20.972-15.238h25.923zm0-68.586s-12.345 12.361-12.345 12.361l12.345 3.863s12.346-3.863 12.346-3.863z" fill="url(#a)"/></svg>