<svg clip-rule="evenodd" fill-rule="evenodd" stroke-linejoin="round" stroke-miterlimit="1.41421" viewBox="0 0 300 300" xmlns="http://www.w3.org/2000/svg" xmlns:xlink="http://www.w3.org/1999/xlink"><radialGradient id="a" cx="0" cy="0" gradientTransform="matrix(55.642 37.4145 -116.067 172.611 155 150)" gradientUnits="userSpaceOnUse" r="1"><stop offset="0" stop-color="#ff9a02"/><stop offset=".32" stop-color="#ff9a02"/><stop offset="1" stop-color="#ffc801"/></radialGradient><path d="m0 0h300v300h-300z" fill="none"/><path d="m151.183 21.633c1.08.269 1.614.183 3.448 1.831l25.097 25.485 24.849-5.289s.679-.28 2.171-.091c1.449.184 2.815.864 3.835 1.909.453.464.525.616.892 1.147l53.357 87.198 9.182 12.286s.568.52 1.019 2.021c.438 1.46.345 3.054-.26 4.452-.269.62-.389.748-.759 1.309l-9.182 12.286-53.357 87.198s-.264.686-1.428 1.638c-1.13.925-2.564 1.448-4.024 1.469-.649.009-.808-.043-1.446-.142l-24.849-5.289-25.097 25.485-.589.53c-2.126 1.486-2.988 1.486-4.438 1.397-1.572-.096-3.007-.823-4.235-1.927l-25.097-25.485-24.849 5.289s-.679.28-2.171.091c-1.449-.184-2.815-.864-3.835-1.909-.453-.464-.525-.616-.892-1.147l-53.357-87.198-9.182-12.286s-.568-.52-1.019-2.021c-.438-1.46-.345-3.054.26-4.452.269-.62.389-.748.759-1.309l9.182-12.286 53.357-87.198s.264-.685 1.428-1.638c1.13-.925 2.564-1.448 4.024-1.469.649-.009.808.043 1.446.142l24.849 5.289 25.097-25.485s1.695-1.506 3.448-1.831c1.469-.272 1.868-.061 2.366 0z" fill="#363533" fill-rule="nonzero"/><path d="m150 28.024s27.597 28.025 27.597 28.025l28.334-6.032 53.514 87.456 9.362 12.527-9.362 12.527-53.514 87.456-28.334-6.032-27.597 28.025s-27.597-28.025-27.597-28.025l-28.334 6.032-53.514-87.456-9.362-12.527 9.362-12.527 53.514-87.456 28.334 6.032zm0 206.611s-12.345 3.863-12.345 3.863l12.345 12.361s12.345-12.361 12.345-12.361zm0-161.174s-52.038-14.643-52.038-14.643l-52.829 91.182 52.829 91.182 52.038-14.643s52.038 14.643 52.038 14.643l52.829-91.182-52.829-91.182zm-10.403 149.781-40.088 11.126-46.799-84.368 8.965-16.162 88.325 44.253 88.325-44.253 8.965 16.162-46.799 84.368-40.088-11.126 34.893-59.336-45.296 33.974-45.296-33.974zm92.983-99.762 1.861 3.356-84.441 42.307-84.441-42.307 1.861-3.356 82.58 41.374zm-159.414-10.358 45.99 23.042 2.654 7.855-51.477-25.79zm153.668 0 2.833 5.107-51.477 25.79 2.654-7.855zm-118.34 8.472 3.705 6.554.188.15-37.279-18.677 24.401-43.989 50.491 14.014s50.491-14.014 50.491-14.014l24.401 43.989-37.279 18.677.188-.15 3.705-6.554h-18.576l-22.93 10.928-22.93-10.928zm41.506-72.453s-12.345 12.361-12.345 12.361l12.345 3.863s12.345-3.863 12.345-3.863z" fill="url(#a)"/><path d="m151.183 21.633.769.192.74.283.7.372.65.454.589.53 25.097 25.485 24.849-5.289.719-.112.727-.03.725.051.715.132.696.21.669.288.631.36.588.428.536.491.478.549.414.598 53.357 87.198 9.182 12.286.417.632.342.677.26.712.175.738.088.753v.758l-.088.753-.175.738-.26.712-.342.677-.417.632-9.182 12.286-53.357 87.198-.414.598-.478.549-.536.491-.588.428-.631.36-.669.288-.696.21-.715.132-.725.051-.727-.03-.719-.112-24.849-5.289-25.097 25.485-.589.53-.65.454-.7.372-.74.283-.769.192-.787.096h-.792l-.787-.096-.769-.192-.74-.283-.7-.372-.65-.454-.589-.53-25.097-25.485-24.849 5.289-.719.112-.727.03-.725-.051-.715-.132-.696-.21-.669-.288-.631-.36-.588-.428-.536-.491-.478-.549-.414-.598-53.357-87.198-9.182-12.286-.417-.632-.342-.677-.26-.712-.175-.738-.088-.753v-.758l.088-.753.175-.738.26-.712.342-.677.417-.632 9.182-12.286 53.357-87.198.414-.598.478-.549.536-.491.588-.428.631-.36.669-.288.696-.21.715-.132.725-.051.727.03.719.112 24.849 5.289 25.097-25.485.589-.53.65-.454.7-.372.74-.283.769-.192.787-.096h.792l.787.096zm-28.78 34.416-28.334-6.032-53.514 87.456-9.362 12.527 9.362 12.527 53.514 87.456 28.334-6.032 27.597 28.025 27.597-28.025 28.334 6.032 53.514-87.456 9.362-12.527-9.362-12.527-53.514-87.456-28.334 6.032-27.597-28.025zm39.942 182.449-12.345 12.361-12.345-12.361 12.345-3.863zm-12.508 2.999.163.164.163-.164-.163-.051zm105.03-91.497-52.829 91.182-52.038-14.643-52.038 14.643-52.829-91.182 52.829-91.182 52.038 14.643 52.038-14.643zm-104.867 28.091-88.325-44.253-8.965 16.162 46.799 84.368 40.088-11.126-34.893-59.336 45.296 33.974 45.296-33.974-34.893 59.336 40.088 11.126 46.799-84.368-8.965-16.162zm3.9 24.989-.634.42-.678.343-.714.261-.739.177-.755.088h-.76l-.755-.088-.739-.177-.714-.261-.678-.343-.634-.42-19.356-14.518 18.456 31.385.359.707.127.347 2.553-.719.696-.155.709-.078h.712l.709.078.696.155 2.553.719.127-.347.359-.707 18.456-31.385zm-3.9-38.226-82.58-41.374-1.861 3.356 84.441 42.307 84.441-42.307-1.861-3.356zm-31.12-36.76-.013.654 3.201 1.604.629.36.584.428.534.491.475.546.412.596.343.638.27.673 2.653 7.855.202.74.114.758.023.767-.067.764-.156.751-.244.727-.014.028 22.174 11.11 22.174-11.11-.014-.028-.244-.727-.156-.751-.067-.764.023-.767.114-.758.202-.74 2.653-7.855.27-.673.343-.638.412-.596.475-.546.534-.491.584-.428.629-.36 3.201-1.604-.013-.654h-6.72l-21.604 10.295-.668.274-.695.199-.712.119-.721.041-.721-.041-.712-.119-.695-.199-.668-.274-21.604-10.295zm61.964 8.07-2.654 7.855 51.477-25.79-2.833-5.107zm-110.511-17.935 51.477 25.79-2.654-7.855-45.99-23.042zm79.667-38.583-50.491-14.014-24.401 43.989 37.279 18.677-.188-.15-3.705-6.554h18.576l22.93 10.928 22.93-10.928h18.576l-3.705 6.554-.188.15 37.279-18.677-24.401-43.989zm12.345-18.144-12.345 3.863-12.345-3.863 12.345-12.361zm-12.508-2.999.163.051.163-.051-.163-.164z" fill="none"/></svg>