<svg clip-rule="evenodd" fill-rule="evenodd" stroke-linejoin="round" stroke-miterlimit="1.41421" viewBox="0 0 301 300" xmlns="http://www.w3.org/2000/svg" xmlns:xlink="http://www.w3.org/1999/xlink"><radialGradient id="a" cx="0" cy="0" gradientTransform="matrix(55.642 37.4145 -116.067 172.611 155.381 150)" gradientUnits="userSpaceOnUse" r="1"><stop offset="0" stop-color="#ff9a02"/><stop offset=".32" stop-color="#ff9a02"/><stop offset="1" stop-color="#ffc801"/></radialGradient><path d="m.381 0h300v300h-300z" fill="none"/><path d="m151.564 21.633c1.08.269 1.614.183 3.449 1.831l25.096 25.485 24.849-5.289s.679-.28 2.171-.091c1.449.184 2.815.864 3.835 1.909.453.464.525.616.892 1.147l53.357 87.198 9.182 12.286s.568.52 1.019 2.021c.438 1.46.345 3.054-.26 4.452-.269.62-.389.748-.759 1.309l-9.182 12.286-53.357 87.198s-.264.686-1.428 1.638c-1.13.925-2.564 1.448-4.024 1.469-.648.009-.808-.043-1.446-.142l-24.849-5.289-25.096 25.485-.59.53c-2.125 1.486-2.988 1.486-4.438 1.397-1.572-.096-3.007-.823-4.235-1.927l-25.097-25.485-24.849 5.289s-.679.28-2.171.091c-1.449-.184-2.815-.864-3.835-1.909-.453-.464-.525-.616-.892-1.147l-53.357-87.198-9.182-12.286s-.567-.52-1.018-2.021c-.439-1.46-.346-3.054.26-4.452.268-.62.388-.748.758-1.309l9.182-12.286 53.357-87.198s.264-.685 1.428-1.638c1.13-.925 2.564-1.448 4.025-1.469.648-.009.807.043 1.445.142l24.849 5.289 25.097-25.485s1.695-1.506 3.448-1.831c1.469-.272 1.869-.061 2.366 0z" fill="#363533" fill-rule="nonzero"/><path d="m150.381 28.024s27.597 28.025 27.597 28.025l28.334-6.032 53.514 87.456 9.362 12.527-9.362 12.527-53.514 87.456-28.334-6.032-27.597 28.025s-27.597-28.025-27.597-28.025l-28.333 6.032-53.515-87.456-9.362-12.527 9.362-12.527 53.515-87.456 28.333 6.032zm0 206.611s-12.345 3.863-12.345 3.863l12.345 12.361s12.346-12.361 12.346-12.361zm0-161.174s-52.038-14.643-52.038-14.643l-52.829 91.182 52.829 91.182 52.038-14.643s52.038 14.643 52.038 14.643l52.829-91.182-52.829-91.182zm0 6.185s50.491-14.014 50.491-14.014l46.799 84.368-46.799 84.368-50.491-14.014s-50.491 14.014-50.491 14.014l-46.799-84.368 46.799-84.368zm-4.603 119.409s23.416-1.14 35.428-27.364c9.063-19.787-.858-39.802-.858-39.802s4.386-4.28 6.262-6.691c1.901-2.445 5.318-7.549 5.318-7.549l-105.424 68.538s16.216-5.917 32.168-12.009c16.558-6.324 32.814-13.552 39.545-6.948 17.005 16.687-12.439 31.825-12.439 31.825zm28.908-76.002c-9.814 3.875-19.337 9.316-28.307 13.897-26.684 13.627-49.256 22.778-49.581-.601-.389-27.925 50.741-46.852 77.888-13.296zm19.452-6.159c1.457 1.809 2.81 4.01 3.991 5.998 1.23 2.068 3.277 6.581 3.277 6.581l1.811-12.906s5.447-4.782 7.284-7.375c1.733-2.446 3.522-7.549 3.736-8.182l.021-.065s-6.076.739-8.857 1.918c-2.935 1.245-8.755 5.549-8.755 5.549l-12.996-.975s3.975 2.96 5.734 4.601c1.48 1.381 3.332 3.092 4.754 4.856zm-43.757-67.753s-12.345 12.361-12.345 12.361l12.345 3.863s12.346-3.863 12.346-3.863z" fill="url(#a)"/></svg>